<svg xmlns="http://www.w3.org/2000/svg" viewBox="0 0 64 64" fill="none">
  <defs>
    <linearGradient id="brand" x1="0" y1="0" x2="64" y2="64" gradientUnits="userSpaceOnUse">
      <stop offset="0%" stop-color="#F97316"/>
      <stop offset="100%" stop-color="#5546FF"/>
    </linearGradient>
  </defs>
  <rect width="64" height="64" rx="14" fill="url(#brand)"/>
  <!-- Vertical stem -->
  <rect x="16" y="14" width="6" height="36" rx="3" fill="white" opacity="0.95"/>
  <!-- Top bar — longest, curves right -->
  <path d="M16 14h24c3 0 5 2 5 4v0c0 2-2 4-5 4H16" fill="white" opacity="0.95"/>
  <!-- Middle bar — medium -->
  <path d="M22 28h14c2.5 0 4.5 1.8 4.5 3.5s-2 3.5-4.5 3.5H22" fill="white" opacity="0.85"/>
  <!-- Bottom short bar -->
  <path d="M22 42h8c2 0 3.5 1.5 3.5 3s-1.5 3-3.5 3H22" fill="white" opacity="0.7"/>
  <!-- Blockchain node dot -->
  <circle cx="48" cy="45" r="4" fill="white" opacity="0.6"/>
  <!-- Connection line from bottom bar to node -->
  <path d="M33.5 45C37 45 42 45 44 45" stroke="white" stroke-width="1.5" stroke-linecap="round" opacity="0.4"/>
</svg>
